<?xml version="1.0" standalone="no"?>
<!DOCTYPE svg PUBLIC "-//W3C//DTD SVG 20010904//EN"
 "http://www.w3.org/TR/2001/REC-SVG-20010904/DTD/svg10.dtd">
<svg version="1.0" xmlns="http://www.w3.org/2000/svg"
 width="260.000000pt" height="260.000000pt" viewBox="0 0 260.000000 260.000000"
 preserveAspectRatio="xMidYMid meet">
<metadata>
Created by potrace 1.11, written by Peter Selinger 2001-2013
</metadata>
<g transform="translate(0.000000,260.000000) scale(0.100000,-0.100000)"
fill="#000000" stroke="none">
<path d="M1950 2016 c-97 -240 -395 -502 -627 -551 -152 -33 -221 -15 -349 88
-163 132 -289 171 -430 133 -104 -28 -220 -111 -306 -220 l-40 -50 64 -20
c133 -43 260 -165 483 -461 62 -82 132 -169 156 -192 159 -151 357 -221 594
-210 334 15 649 205 820 496 47 79 91 179 83 187 -3 3 -34 -7 -69 -20 -119
-48 -217 -68 -356 -73 -72 -3 -143 -3 -158 1 l-27 7 24 32 c39 51 93 156 121
232 44 124 60 227 61 390 1 131 -8 273 -18 283 -2 1 -13 -22 -26 -52z"/>
</g>
</svg>
